<?xml version="1.0" encoding="utf-8"?>
<!-- Generator: Adobe Illustrator 24.0.3, SVG Export Plug-In . SVG Version: 6.00 Build 0)  -->
<!DOCTYPE svg PUBLIC "-//W3C//DTD SVG 1.1//EN" "http://www.w3.org/Graphics/SVG/1.1/DTD/svg11.dtd" [
	<!ENTITY ns_extend "http://ns.adobe.com/Extensibility/1.0/">
	<!ENTITY ns_ai "http://ns.adobe.com/AdobeIllustrator/10.0/">
	<!ENTITY ns_graphs "http://ns.adobe.com/Graphs/1.0/">
	<!ENTITY ns_vars "http://ns.adobe.com/Variables/1.0/">
	<!ENTITY ns_imrep "http://ns.adobe.com/ImageReplacement/1.0/">
	<!ENTITY ns_sfw "http://ns.adobe.com/SaveForWeb/1.0/">
	<!ENTITY ns_custom "http://ns.adobe.com/GenericCustomNamespace/1.0/">
	<!ENTITY ns_adobe_xpath "http://ns.adobe.com/XPath/1.0/">
]>
<svg version="1.1" id="Ebene_1" xmlns:x="&ns_extend;" xmlns:i="&ns_ai;" xmlns:graph="&ns_graphs;"
	 xmlns="http://www.w3.org/2000/svg" xmlns:xlink="http://www.w3.org/1999/xlink" x="0px" y="0px" viewBox="0 0 595.3 841.9"
	 style="enable-background:new 0 0 595.3 841.9;" xml:space="preserve">
<style type="text/css">
	.st0{fill:#FFFFFF;}
</style>
<metadata>
	<sfw  xmlns="&ns_sfw;">
		<slices></slices>
		<sliceSourceBounds  bottomLeftOrigin="true" height="89.7" width="200.4" x="198.3" y="375.2"></sliceSourceBounds>
	</sfw>
</metadata>
<g>
	<path class="st0" d="M249.4,427c0,1-0.1,2-0.4,2.8c-0.3,0.8-0.7,1.6-1.2,2.2c-0.5,0.6-1.1,1.2-1.8,1.7c-0.7,0.5-1.5,0.8-2.3,1.1
		c-0.8,0.3-1.7,0.5-2.7,0.7c-0.9,0.1-2,0.2-3.2,0.2h-7.7c-0.5,0-0.9-0.1-1.2-0.4c-0.3-0.3-0.5-0.8-0.5-1.4v-25.2
		c0-0.7,0.2-1.1,0.5-1.4c0.3-0.3,0.7-0.4,1.2-0.4h7.3c1.8,0,3.3,0.1,4.5,0.4c1.2,0.3,2.3,0.7,3.1,1.4s1.5,1.4,1.9,2.3
		c0.4,0.9,0.7,2,0.7,3.3c0,0.7-0.1,1.4-0.3,2c-0.2,0.6-0.4,1.2-0.8,1.7c-0.3,0.5-0.8,1-1.3,1.3c-0.5,0.4-1.1,0.7-1.7,0.9
		c0.8,0.1,1.6,0.4,2.3,0.8c0.7,0.4,1.3,0.9,1.8,1.4c0.5,0.6,0.9,1.3,1.2,2.1C249.3,425.1,249.4,426,249.4,427z M241.8,414.8
		c0-0.6-0.1-1.1-0.3-1.6s-0.4-0.8-0.8-1.2c-0.4-0.3-0.8-0.5-1.4-0.7c-0.5-0.2-1.3-0.2-2.2-0.2h-3v7.5h3.3c0.8,0,1.5-0.1,2-0.3
		c0.5-0.2,0.9-0.5,1.3-0.8c0.3-0.4,0.6-0.8,0.7-1.2C241.7,415.8,241.8,415.3,241.8,414.8z M243.3,427.2c0-0.7-0.1-1.3-0.3-1.8
		c-0.2-0.5-0.6-1-1-1.3c-0.4-0.4-1-0.6-1.7-0.8s-1.5-0.3-2.6-0.3h-3.5v8.2h4.2c0.8,0,1.5-0.1,2.1-0.3s1-0.4,1.5-0.8
		c0.4-0.3,0.7-0.8,1-1.3S243.3,427.8,243.3,427.2z"/>
	<path class="st0" d="M275.1,433.2c0,0.4,0,0.8-0.1,1.1c0,0.3-0.1,0.6-0.2,0.8s-0.2,0.3-0.3,0.4c-0.1,0.1-0.2,0.1-0.4,0.1h-13.3
		c-0.5,0-0.9-0.1-1.2-0.4c-0.3-0.3-0.5-0.8-0.5-1.4v-26.3c0-0.1,0-0.3,0.1-0.4c0.1-0.1,0.3-0.2,0.5-0.3c0.2-0.1,0.5-0.1,0.9-0.2
		c0.4,0,0.9-0.1,1.4-0.1c0.6,0,1.1,0,1.4,0.1c0.4,0,0.7,0.1,0.9,0.2c0.2,0.1,0.4,0.2,0.5,0.3c0.1,0.1,0.1,0.3,0.1,0.4v23.3h9.1
		c0.1,0,0.3,0,0.4,0.1s0.2,0.2,0.3,0.4s0.1,0.4,0.2,0.7S275.1,432.7,275.1,433.2z"/>
	<path class="st0" d="M307.2,433.4c0.2,0.5,0.3,1,0.3,1.3c0,0.3,0,0.5-0.2,0.7c-0.2,0.2-0.5,0.3-0.9,0.3s-1,0.1-1.7,0.1
		c-0.8,0-1.4,0-1.8,0c-0.4,0-0.7-0.1-1-0.1c-0.2-0.1-0.4-0.2-0.5-0.3c-0.1-0.1-0.2-0.3-0.2-0.5l-1.9-5.8h-10.9l-1.8,5.7
		c-0.1,0.2-0.1,0.4-0.2,0.5c-0.1,0.1-0.3,0.3-0.5,0.3s-0.5,0.1-0.9,0.2c-0.4,0-0.9,0-1.6,0c-0.7,0-1.2,0-1.6-0.1
		c-0.4,0-0.7-0.2-0.8-0.3s-0.2-0.4-0.2-0.7c0-0.3,0.2-0.7,0.3-1.3l8.9-25.7c0.1-0.3,0.2-0.5,0.3-0.6c0.1-0.2,0.3-0.3,0.6-0.4
		s0.6-0.1,1.1-0.2c0.5,0,1.1,0,1.8,0c0.9,0,1.6,0,2.1,0c0.5,0,0.9,0.1,1.2,0.2s0.5,0.2,0.6,0.4c0.1,0.2,0.2,0.4,0.3,0.7L307.2,433.4
		z M294,412.2L294,412.2l-4.1,12.3h8.2L294,412.2z"/>
	<path class="st0" d="M335.8,431.2c0,0.4,0,0.7,0,1s-0.1,0.5-0.1,0.7s-0.1,0.3-0.2,0.5c-0.1,0.1-0.2,0.3-0.4,0.5s-0.5,0.4-1,0.7
		c-0.5,0.3-1,0.5-1.7,0.8c-0.7,0.2-1.5,0.5-2.3,0.6c-0.9,0.2-1.8,0.2-2.8,0.2c-2,0-3.8-0.3-5.4-0.9c-1.6-0.6-3-1.5-4.1-2.7
		c-1.1-1.2-2-2.7-2.6-4.5c-0.6-1.8-0.9-3.9-0.9-6.3c0-2.5,0.3-4.6,1-6.5c0.7-1.9,1.6-3.5,2.7-4.8c1.2-1.3,2.6-2.3,4.2-3
		c1.6-0.7,3.5-1,5.4-1c0.8,0,1.6,0.1,2.3,0.2s1.4,0.3,2.1,0.5c0.6,0.2,1.2,0.5,1.7,0.7c0.5,0.3,0.9,0.5,1.1,0.7
		c0.2,0.2,0.3,0.4,0.4,0.5c0.1,0.1,0.1,0.3,0.2,0.5c0,0.2,0.1,0.5,0.1,0.7c0,0.3,0,0.6,0,1.1c0,0.4,0,0.8,0,1.1
		c0,0.3-0.1,0.6-0.2,0.8c-0.1,0.2-0.2,0.3-0.3,0.4s-0.2,0.1-0.4,0.1c-0.2,0-0.5-0.1-0.8-0.4s-0.8-0.6-1.3-0.9s-1.2-0.6-1.9-0.9
		c-0.8-0.3-1.7-0.4-2.7-0.4c-1.1,0-2.2,0.2-3.1,0.7s-1.7,1.1-2.3,2c-0.6,0.9-1.1,1.9-1.4,3.2c-0.3,1.2-0.5,2.6-0.5,4.2
		c0,1.7,0.2,3.2,0.5,4.4c0.4,1.2,0.8,2.3,1.5,3.1c0.6,0.8,1.4,1.4,2.3,1.8c0.9,0.4,1.9,0.6,3.1,0.6c1,0,1.9-0.1,2.7-0.4
		c0.8-0.2,1.4-0.5,2-0.8c0.5-0.3,1-0.6,1.3-0.8c0.3-0.2,0.6-0.4,0.8-0.4c0.1,0,0.3,0,0.4,0.1c0.1,0.1,0.2,0.2,0.2,0.4
		s0.1,0.4,0.1,0.7C335.8,430.3,335.8,430.7,335.8,431.2z"/>
	<path class="st0" d="M366.2,434.8c0,0.2,0,0.3-0.1,0.4c-0.1,0.1-0.2,0.2-0.5,0.3s-0.5,0.1-0.9,0.2c-0.4,0-0.9,0.1-1.5,0.1
		c-1,0-1.7,0-2.1-0.1c-0.4-0.1-0.7-0.2-0.9-0.3c-0.2-0.1-0.3-0.3-0.4-0.5l-8.7-13.7v13.7c0,0.2,0,0.3-0.1,0.4
		c-0.1,0.1-0.2,0.2-0.5,0.3s-0.5,0.1-0.9,0.2c-0.4,0-0.8,0.1-1.4,0.1c-0.6,0-1,0-1.4-0.1c-0.4,0-0.7-0.1-0.9-0.2s-0.4-0.2-0.5-0.3
		c-0.1-0.1-0.1-0.3-0.1-0.4v-27.2c0-0.2,0-0.3,0.1-0.4c0.1-0.1,0.3-0.2,0.5-0.3c0.2-0.1,0.5-0.1,0.9-0.2c0.4,0,0.9-0.1,1.4-0.1
		c0.6,0,1.1,0,1.4,0.1c0.4,0,0.7,0.1,0.9,0.2c0.2,0.1,0.4,0.2,0.5,0.3c0.1,0.1,0.1,0.3,0.1,0.4v12.3l8.5-12.3
		c0.1-0.2,0.2-0.4,0.4-0.5c0.1-0.1,0.3-0.2,0.6-0.3s0.5-0.1,0.9-0.2c0.4,0,0.8,0,1.4,0c0.6,0,1.1,0,1.5,0.1c0.4,0,0.7,0.1,0.9,0.2
		c0.2,0.1,0.4,0.2,0.5,0.3c0.1,0.1,0.1,0.3,0.1,0.4c0,0.3-0.1,0.5-0.2,0.8s-0.4,0.7-0.8,1.3l-7.9,10.4l8.6,13.1
		c0.3,0.6,0.5,1,0.6,1.2C366.1,434.5,366.2,434.6,366.2,434.8z"/>
</g>
<g>
	<polygon class="st0" points="398.7,466.7 198.3,466.7 198.3,377 258.2,377 258.2,393.2 214.5,393.2 214.5,450.5 382.5,450.5 
		382.5,393.2 337,393.2 337,377 398.7,377 	"/>
</g>
<g>
	<path class="st0" d="M275.2,389.3c0,0.1,0,0.2,0,0.3c0,0.1,0,0.1,0,0.2s0,0.1-0.1,0.2c0,0-0.1,0.1-0.1,0.2
		c-0.1,0.1-0.2,0.2-0.4,0.3s-0.5,0.3-0.8,0.4s-0.7,0.2-1,0.3c-0.4,0.1-0.8,0.1-1.3,0.1c-0.8,0-1.5-0.1-2.2-0.4
		c-0.7-0.3-1.2-0.7-1.7-1.2s-0.8-1.2-1.1-1.9s-0.4-1.7-0.4-2.7c0-1,0.1-2,0.4-2.8c0.3-0.8,0.6-1.5,1.1-2.1c0.5-0.6,1.1-1,1.7-1.3
		c0.7-0.3,1.4-0.4,2.2-0.4c0.4,0,0.7,0,1,0.1c0.3,0.1,0.7,0.2,0.9,0.3c0.3,0.1,0.5,0.2,0.8,0.4c0.2,0.1,0.4,0.2,0.5,0.3
		s0.1,0.2,0.2,0.2c0,0,0,0.1,0.1,0.2c0,0.1,0,0.1,0,0.2c0,0.1,0,0.2,0,0.3c0,0.1,0,0.2,0,0.3c0,0.1,0,0.2-0.1,0.2
		c0,0.1-0.1,0.1-0.1,0.1s-0.1,0-0.1,0c-0.1,0-0.2-0.1-0.4-0.2c-0.2-0.1-0.4-0.3-0.6-0.4c-0.3-0.2-0.6-0.3-0.9-0.4
		c-0.4-0.1-0.8-0.2-1.3-0.2c-0.6,0-1.1,0.1-1.5,0.3c-0.5,0.2-0.8,0.5-1.2,1c-0.3,0.4-0.6,1-0.7,1.6c-0.2,0.6-0.3,1.3-0.3,2.1
		c0,0.8,0.1,1.5,0.3,2.1c0.2,0.6,0.4,1.1,0.7,1.5c0.3,0.4,0.7,0.7,1.2,0.9c0.5,0.2,1,0.3,1.6,0.3c0.5,0,0.9-0.1,1.3-0.2
		c0.4-0.1,0.7-0.3,0.9-0.4c0.3-0.2,0.5-0.3,0.6-0.4s0.3-0.2,0.4-0.2c0,0,0.1,0,0.1,0c0,0,0.1,0.1,0.1,0.1c0,0.1,0,0.1,0,0.2
		C275.2,389,275.2,389.1,275.2,389.3z"/>
	<path class="st0" d="M289.8,384.7c0,1-0.1,1.9-0.4,2.7c-0.2,0.8-0.6,1.5-1.1,2.1c-0.5,0.6-1.1,1-1.8,1.3s-1.5,0.5-2.5,0.5
		c-0.9,0-1.7-0.1-2.4-0.4c-0.7-0.3-1.2-0.7-1.7-1.2c-0.4-0.5-0.8-1.2-1-2c-0.2-0.8-0.3-1.7-0.3-2.7c0-1,0.1-1.9,0.4-2.7
		c0.2-0.8,0.6-1.5,1.1-2c0.5-0.6,1.1-1,1.8-1.3s1.5-0.5,2.5-0.5c0.9,0,1.7,0.1,2.4,0.4c0.7,0.3,1.2,0.7,1.7,1.2c0.5,0.5,0.8,1.2,1,2
		C289.7,382.8,289.8,383.7,289.8,384.7z M288,384.8c0-0.7-0.1-1.4-0.2-2c-0.1-0.6-0.3-1.1-0.6-1.6c-0.3-0.4-0.7-0.8-1.2-1
		c-0.5-0.2-1.1-0.4-1.8-0.4s-1.3,0.1-1.8,0.4s-0.9,0.6-1.2,1.1c-0.3,0.4-0.5,1-0.7,1.6c-0.1,0.6-0.2,1.2-0.2,1.9
		c0,0.7,0.1,1.4,0.2,2s0.3,1.1,0.6,1.6c0.3,0.4,0.7,0.8,1.2,1s1.1,0.4,1.8,0.4c0.7,0,1.3-0.1,1.8-0.4s0.9-0.6,1.2-1.1
		c0.3-0.5,0.5-1,0.6-1.6S288,385.5,288,384.8z"/>
	<path class="st0" d="M303.9,390.4c0,0.1,0,0.2-0.1,0.3c0,0.1-0.1,0.2-0.2,0.2c-0.1,0.1-0.1,0.1-0.2,0.1c-0.1,0-0.2,0-0.3,0h-0.5
		c-0.2,0-0.3,0-0.5-0.1c-0.1,0-0.3-0.1-0.4-0.2c-0.1-0.1-0.2-0.2-0.3-0.4c-0.1-0.2-0.2-0.4-0.4-0.6l-3.8-7.1
		c-0.2-0.4-0.4-0.7-0.6-1.1c-0.2-0.4-0.4-0.8-0.6-1.2h0c0,0.5,0,0.9,0,1.4c0,0.5,0,1,0,1.4v7.5c0,0,0,0.1,0,0.1c0,0-0.1,0.1-0.1,0.1
		c-0.1,0-0.1,0-0.3,0.1c-0.1,0-0.2,0-0.4,0s-0.3,0-0.4,0c-0.1,0-0.2,0-0.2-0.1c-0.1,0-0.1-0.1-0.1-0.1c0,0,0-0.1,0-0.1v-11.5
		c0-0.3,0.1-0.4,0.2-0.5s0.3-0.2,0.5-0.2h0.8c0.2,0,0.4,0,0.5,0s0.2,0.1,0.3,0.2c0.1,0.1,0.2,0.2,0.3,0.3s0.2,0.3,0.3,0.5l2.9,5.5
		c0.2,0.3,0.4,0.7,0.5,1c0.2,0.3,0.3,0.6,0.5,0.9c0.2,0.3,0.3,0.6,0.5,0.9c0.2,0.3,0.3,0.6,0.5,0.9h0c0-0.5,0-1,0-1.6
		c0-0.5,0-1.1,0-1.6v-6.7c0,0,0-0.1,0-0.1c0,0,0.1-0.1,0.1-0.1s0.1,0,0.3-0.1c0.1,0,0.2,0,0.4,0c0.1,0,0.3,0,0.4,0s0.2,0,0.3,0.1
		s0.1,0.1,0.1,0.1c0,0,0,0.1,0,0.1V390.4z"/>
	<path class="st0" d="M317.2,379.3c0,0.1,0,0.2,0,0.3s0,0.2-0.1,0.2c0,0.1-0.1,0.1-0.1,0.1c0,0-0.1,0-0.1,0h-3.5v10.8
		c0,0.1,0,0.1,0,0.1s-0.1,0.1-0.1,0.1c-0.1,0-0.1,0-0.3,0.1c-0.1,0-0.2,0-0.4,0c-0.2,0-0.3,0-0.4,0c-0.1,0-0.2,0-0.3-0.1
		c-0.1,0-0.1-0.1-0.1-0.1s0-0.1,0-0.1V380h-3.5c-0.1,0-0.1,0-0.1,0c0,0-0.1-0.1-0.1-0.1c0-0.1,0-0.1-0.1-0.2s0-0.2,0-0.3
		c0-0.1,0-0.2,0-0.3c0-0.1,0-0.2,0.1-0.2s0.1-0.1,0.1-0.1c0,0,0.1,0,0.1,0h8.6c0.1,0,0.1,0,0.1,0c0,0,0.1,0.1,0.1,0.1
		c0,0.1,0,0.1,0.1,0.2C317.2,379.1,317.2,379.2,317.2,379.3z"/>
	<path class="st0" d="M328.9,390.5c0.1,0.1,0.1,0.3,0.1,0.3c0,0.1,0,0.2-0.1,0.2c-0.1,0-0.1,0.1-0.3,0.1c-0.1,0-0.3,0-0.5,0
		c-0.2,0-0.4,0-0.5,0c-0.1,0-0.2,0-0.3,0s-0.1-0.1-0.1-0.1c0,0-0.1-0.1-0.1-0.1l-1.1-3H321l-1,3c0,0.1,0,0.1-0.1,0.1
		c0,0-0.1,0.1-0.1,0.1c-0.1,0-0.1,0-0.3,0.1c-0.1,0-0.3,0-0.4,0c-0.2,0-0.3,0-0.5,0c-0.1,0-0.2,0-0.2-0.1s-0.1-0.1-0.1-0.2
		s0-0.2,0.1-0.3l4.2-11.5c0-0.1,0.1-0.1,0.1-0.2c0,0,0.1-0.1,0.2-0.1c0.1,0,0.2,0,0.3-0.1s0.3,0,0.5,0c0.2,0,0.4,0,0.5,0
		c0.1,0,0.2,0,0.3,0.1c0.1,0,0.1,0.1,0.2,0.1c0,0,0.1,0.1,0.1,0.2L328.9,390.5z M323.6,380.3L323.6,380.3l-2.2,6.2h4.3L323.6,380.3z
		"/>
</g>
</svg>
