<?xml version="1.0" encoding="utf-8"?>
<!-- Generator: Adobe Illustrator 24.0.3, SVG Export Plug-In . SVG Version: 6.00 Build 0)  -->
<!DOCTYPE svg PUBLIC "-//W3C//DTD SVG 1.1//EN" "http://www.w3.org/Graphics/SVG/1.1/DTD/svg11.dtd" [
	<!ENTITY ns_extend "http://ns.adobe.com/Extensibility/1.0/">
	<!ENTITY ns_ai "http://ns.adobe.com/AdobeIllustrator/10.0/">
	<!ENTITY ns_graphs "http://ns.adobe.com/Graphs/1.0/">
	<!ENTITY ns_vars "http://ns.adobe.com/Variables/1.0/">
	<!ENTITY ns_imrep "http://ns.adobe.com/ImageReplacement/1.0/">
	<!ENTITY ns_sfw "http://ns.adobe.com/SaveForWeb/1.0/">
	<!ENTITY ns_custom "http://ns.adobe.com/GenericCustomNamespace/1.0/">
	<!ENTITY ns_adobe_xpath "http://ns.adobe.com/XPath/1.0/">
]>
<svg version="1.1" id="Ebene_1" xmlns:x="&ns_extend;" xmlns:i="&ns_ai;" xmlns:graph="&ns_graphs;"
	 xmlns="http://www.w3.org/2000/svg" xmlns:xlink="http://www.w3.org/1999/xlink" x="0px" y="0px" viewBox="0 0 2500 426"
	 style="enable-background:new 0 0 2500 426;" xml:space="preserve">
<style type="text/css">
	.st0{fill:#FFFFFF;}
</style>
<metadata>
	<sfw  xmlns="&ns_sfw;">
		<slices></slices>
		<sliceSourceBounds  bottomLeftOrigin="true" height="360.1" width="2486" x="7.8" y="35.4"></sliceSourceBounds>
	</sfw>
</metadata>
<g>
	<path class="st0" d="M901.4,102.3c35.5-36.5,93.8-37.3,130.2-1.8c13.4,13,22.5,29.8,26.1,48.2c1.2,6.3,1.8,12.6,1.7,19v150.5
		c0,3.3-0.3,6.6-0.9,9.8c-1.4,9.6-8.9,17.3-18.5,19c-10,2.5-20.4-1.8-25.8-10.6c-1.8-3.3-3-6.9-3.6-10.7c-0.3-2.8-0.3-5.6,0-8.4
		V170.2c0.6-13.5-5.2-26.4-15.5-35c-17.1-15.2-43.2-13.6-58.4,3.4c-3.9,4.4-6.8,9.5-8.6,15.1c-1,3.6-1.5,7.4-1.5,11.2v153.6
		c0.5,7.2-1.7,14.3-6.1,20c-6.3,8-17.1,11.1-26.8,7.7c-9.2-3.6-15.5-12.1-16.2-22v-34.4V171.3c0.2-7.9-1.4-15.8-4.6-23
		c-7.5-16.3-24.7-25.9-42.5-23.6c-17.6,2.5-32,15.5-36.2,32.8c-0.2,1.8-0.2,3.6,0,5.3c0,52.5-0.1,104.9-0.4,157.4
		c-0.1,3-0.5,5.9-1.3,8.8c-3.3,13.1-16.6,20.9-29.7,17.6c-10.5-2.7-18-12-18.3-22.8v-73.4c0-28,0.5-56.6,0-84.8
		c-0.5-38.1,22.8-72.4,58.3-86.1c33.4-12.5,64-5.9,91.1,16.7c1.8,1.5,3.4,3.1,5.1,4.6c0.6,0.4,1.3,0.8,2,1.2 M1361.3,216.6
		c1.2,74.7-62,134.3-134.4,134.3c-73.7-1.2-133-60.7-134.1-134.4c0.1-74.2,60.1-134.4,134.3-134.6c73.5-0.4,133.5,58.8,133.9,132.4
		c0,0.8,0,1.6,0,2.4 M1312,216.6c0.1-46.9-37.9-84.9-84.7-85h-0.1c-46.5,0.6-84.2,38-85.1,84.6c0.7,46.6,38,84.3,84.6,85.5
		C1273.1,302.1,1313.3,262.2,1312,216.6 M2252.4,216.3c1.3,74.9-61.9,134.5-134.1,134.6c-73.6-1.1-133.1-60.4-134.3-134.1
		c-0.1-74.3,59.9-134.6,134.2-135c73.5-0.6,133.6,58.6,134.2,132.1C2252.4,214.7,2252.4,215.5,2252.4,216.3 M2203.3,216.6
		c0.1-46.8-37.7-84.9-84.5-85.1c-46.8,0.2-84.9,37.8-85.8,84.6c0.6,46.6,38,84.4,84.7,85.6c46.5,0.5,86.8-39.5,85.4-85
		 M2361.4,347.4h-58.1c-8.8,0.9-17.2-3.9-21-11.9c-4.8-8.9-4.2-19.7,1.5-28c3.9-5.5,10.2-8.8,17-8.9h109.4c7.7,0.2,15.2-1.9,21.7-6
		c11.9-7.9,16.7-23,11.6-36.4c-1.7-5.4-5.5-9.9-10.5-12.6c-6.5-4-14.1-6.2-21.7-6.2H2363c-31.9,1.1-61-18.1-72.5-47.9
		c-17.4-38.2-0.6-83.3,37.6-100.7c6-2.7,12.3-4.7,18.7-5.8c6.5-1.1,13.1-1.6,19.8-1.5h84.1c4.1,0,8.1,0.4,12.1,1.2
		c9.5,2,16.6,10.1,17.2,19.8c0.9,6.9-0.9,13.8-5,19.4c-5.2,6.5-13.2,10-21.4,9.5h-93.3c-15.5,0.3-27.7,13.2-27.4,28.7
		c0.1,3.6,0.9,7.2,2.3,10.5c4.6,11.2,15.9,18.2,28,17.2h55c11.2-0.1,22.3,2.7,32.2,8c25.8,12.7,42.4,38.7,43.1,67.4
		c2.1,23.7-7,47-24.6,63.1c-13.7,13.3-31.9,20.9-51,21L2361.4,347.4L2361.4,347.4z M1645.5,261.7v59.6c0.1,3.8-0.4,7.6-1.5,11.2
		c-5.1,12.5-19.3,18.4-31.8,13.4c-7.8-3.2-13.4-10.1-14.8-18.4c-0.6-3.8-0.8-7.6-0.8-11.4V215.3c0.5-13.8-2.4-27.5-8.5-39.9
		c-18.2-38.5-64.2-54.9-102.6-36.7c-22.9,10.8-39,32.3-43.1,57.3c-1.1,6.5-1.6,13.1-1.5,19.8v104.7c0.1,4-0.4,8.1-1.5,12
		c-3.3,9.8-12.8,16-23.1,15.1c-10.5-0.2-19.8-6.9-23.1-16.9c-0.9-3.2-1.4-6.4-1.4-9.7c0-36.9-0.6-73.9,0-110.8
		c-0.2-54.2,33.6-102.6,84.6-121c15.8-5.7,32.6-8.1,49.4-7c56.3,3.2,103.8,43.1,116.4,98.1c2.2,8.9,3.4,18,3.4,27.2L1645.5,261.7
		L1645.5,261.7z M1945.2,261.7v59.6c0.1,3.8-0.4,7.6-1.5,11.2c-5.2,12.4-19.5,18.3-31.9,13.1c-7.7-3.2-13.2-10.2-14.6-18.4
		c-0.5-3.8-0.8-7.6-0.8-11.4V215c0.5-13.8-2.4-27.5-8.5-39.9c-18.3-38.4-64.3-54.7-102.8-36.4c-22.9,10.9-38.9,32.4-42.9,57.4
		c-1.1,6.5-1.6,13.1-1.5,19.8v104.7c0,3.8-0.6,7.6-1.8,11.2c-4.4,12.5-18.1,19-30.6,14.6c-1.5-0.5-3-1.3-4.4-2.1
		c-8-4.4-13-12.9-12.8-22V291v-79.5c-0.1-21.2,5.1-42.1,14.9-60.9c31.8-62,107.8-86.5,169.8-54.7c8.8,4.5,17.1,10.1,24.7,16.6
		c24.5,20.9,40.2,50.2,44,82.1c0.7,6.1,0.9,12.2,0.7,18.3V262"/>
</g>
<path class="st0" d="M607.3,240.2l-6.1-9.7L503.5,75.6c-7.7-12-17.8-22.3-29.7-30.2c-22.3-14-49.3-18.4-74.8-12.2
	c-25.2,6-46.9,22.1-59.9,44.6c-6.4,10.9-14.8,24.5-23.2,37.8l-26.8-41.1l-0.9-1.3v-0.6c-9-12-20.3-22.1-33.1-29.9
	c-19.6-10.5-42.2-14-64-10c-20.9,4.4-39.9,15.2-54.4,30.8c-4.1,4.7-7.8,9.8-10.9,15.2L53.4,192.9l-30.3,47.8
	C9.3,262.8,4.6,289.4,10,314.9c5,25.4,20.2,47.7,42,61.7c14.9,9.3,32.2,14.1,49.8,14c34.5-0.1,66.7-17.8,85.1-47L210,307l22.2,35
	c6.1,8.6,13.1,16.5,21,23.5c2.1,1.9,4.3,3.7,6.6,5.4c1.5,1.1,3.2,2.2,4.8,3.3c15,9.7,32.5,14.9,50.3,14.9
	c18.8,0.2,37.3-5.1,53.2-15.3l1.9-1.3l1.8-1.2c8.9-6.3,16.6-13.9,23-22.7l26.1-40.8l22.4,35.5c18.6,29.1,50.8,46.7,85.3,46.6
	c17.5,0.1,34.7-4.8,49.6-14C622.6,348,636,285.9,607.3,240.2L607.3,240.2z M139.2,86.6c2.6-4.5,5.7-8.8,9.1-12.8
	c12.2-13,28.1-22,45.6-25.7c18.1-3.1,36.7,0,52.8,8.8c10.9,6.7,20.4,15.3,28,25.6l0.6,0.8l30.7,47.1c-14,21.4-25.5,39.2-25.8,39.6
	c-2.9,4.6-6.3,8.8-10.2,12.7l-0.6,0.6c-2.7,2.7-5.6,5.1-8.6,7.4c-3.6,2.6-7.3,5-11.3,7l-0.9,0.4c-4.5,2.3-9.2,4.2-14,5.7
	c-21.7,7.5-45.5,5.6-65.7-5.1l-3.3-2.1l-1.3-0.9l-1.8-1.3l-1.3-1l-1.5-1.1l-1.3-1l-1.3-1.1l-1.1-0.8l-1.1-1.2l-0.8-0.7l-1-0.8
	l-0.5-0.4l-0.8-0.7l-1.8-2l-0.4-0.4l-0.4-0.4l-2.1-2l-0.6-0.6l-3.4-2.5l-0.6-0.4l-0.9-0.7l-1.5-1.1l-0.8-0.5h-0.4l-2.1-1.3h-0.6
	l-0.6-0.4l-1.2-0.6l-0.9-1.3l-1.3-0.6l-2.7-1.3h-0.8l-1-0.4l-2.6-1h-0.4L122,167h-1.3l-2.5-0.6h-1.3l-2.3-0.4h-10
	c-2.1,0-4.3,0.2-6.4,0.4h-2c-1.9,0-3.8,0.6-5.6,1.1h-1L139.2,86.6z M173.6,335c-11.7,18.4-30.1,31.7-51.3,37
	c-20.9,5.5-43.2,2.1-61.5-9.2c-37.3-25.1-48-75.3-24.1-113.4L67,201.5c2-3.3,4.3-6.3,7-9c8.3-7.9,19.3-12.3,30.7-12.3H117l1.8,0.6
	h0.6l2.6,1.1l0.8,0.4l1.3,0.6h0.6l0.9,0.5l1.1,0.6h0.5l0.9,0.6l1.5,1h0.8l1.1,0.8l0.8,0.6h0.4l2.3,2l1.5,1.4l0.4,0.4l0.4,0.5
	l0.8,0.8l61.1,96.4L173.6,335z M381.8,338.8c-5.4,7.4-11.9,13.8-19.3,19.1l-1.3,0.9l-1.7,1.1c-25.9,17.4-59.6,17.8-85.9,1.1l-4-2.8
	h-0.5c-1.9-1.4-3.6-2.9-5.3-4.4c-6.7-6.1-12.7-12.9-17.9-20.4l-28.7-45.3L172.7,218c3,1.2,6.1,2.2,9.2,3l2,0.6c3.5,0.9,7,1.6,10.6,2
	h1.4c3.5,0.4,7.1,0.6,10.7,0.6h1.3c3.5,0,7,0,10.5-0.6h2.4c3.6-0.4,7.2-1,10.8-1.8c9.8-2.2,19.2-5.7,28-10.5l3.2-2
	c12.7-7.6,23.6-18,31.6-30.4c0,0,13.7-20.6,28.7-44c10.6-16.5,22-35,30.2-48.6C363.9,67.6,382,54.1,403,49.1
	c21.3-5.2,43.8-1.6,62.4,10.1c9.8,6.6,18.1,15.1,24.5,24.9l75.3,119.1l-3.2-1.3l-2.9-1.1c-2.1-0.8-4.3-1.4-6.4-2l-1.9-0.2
	c-2.8-0.7-5.6-1.3-8.4-1.8H540c-2,0-4.1-0.6-6.2-0.7h-12.2l-6,0.5h-2.8c-2.9,0.4-5.8,0.9-8.7,1.6s-6.3,1.7-9.3,2.7
	c-21.1,7.2-39,21.6-50.6,40.6L417,283.8L381.8,338.8z M569.7,362.2c-39,22.8-89,10.4-112.8-28l-26.4-42l27.4-42.8
	c1.4-2.4,3-4.8,4.6-7l0.5-0.6c19.6-25,52-36.2,82.8-28.7h0.9c1.8,0.5,3.7,1.1,5.5,1.7l2.2,0.7c1.4,0.5,2.9,1.2,4.3,1.8l3.2,1.4
	c1.3,0.6,2.7,1.4,3.9,2.2l3.2,1.8c3.4,2.1,6.7,4.4,9.7,7l0.5,0.4c3,2.5,5.8,5.3,8.3,8.2l0.4,0.5l5.7,9c24.8,38.4,14,89.6-24.2,114.7
	v-0.3H569.7z"/>
</svg>
