<?xml version="1.0" encoding="utf-8"?>
<!-- Generator: Adobe Illustrator 24.0.3, SVG Export Plug-In . SVG Version: 6.00 Build 0)  -->
<!DOCTYPE svg PUBLIC "-//W3C//DTD SVG 1.1//EN" "http://www.w3.org/Graphics/SVG/1.1/DTD/svg11.dtd" [
	<!ENTITY ns_extend "http://ns.adobe.com/Extensibility/1.0/">
	<!ENTITY ns_ai "http://ns.adobe.com/AdobeIllustrator/10.0/">
	<!ENTITY ns_graphs "http://ns.adobe.com/Graphs/1.0/">
	<!ENTITY ns_vars "http://ns.adobe.com/Variables/1.0/">
	<!ENTITY ns_imrep "http://ns.adobe.com/ImageReplacement/1.0/">
	<!ENTITY ns_sfw "http://ns.adobe.com/SaveForWeb/1.0/">
	<!ENTITY ns_custom "http://ns.adobe.com/GenericCustomNamespace/1.0/">
	<!ENTITY ns_adobe_xpath "http://ns.adobe.com/XPath/1.0/">
]>
<svg version="1.1" id="Ebene_1" xmlns:x="&ns_extend;" xmlns:i="&ns_ai;" xmlns:graph="&ns_graphs;"
	 xmlns="http://www.w3.org/2000/svg" xmlns:xlink="http://www.w3.org/1999/xlink" x="0px" y="0px" viewBox="0 0 465.9 39.2"
	 style="enable-background:new 0 0 465.9 39.2;" xml:space="preserve">
<style type="text/css">
	.st0{fill:#FFFFFF;}
</style>
<metadata>
	<sfw  xmlns="&ns_sfw;">
		<slices></slices>
		<sliceSourceBounds  bottomLeftOrigin="true" height="39.2" width="463.7" x="61.4" y="436.1"></sliceSourceBounds>
	</sfw>
</metadata>
<g>
	<path class="st0" d="M1.4,19.7v-0.1c0-10.7,8-19.5,19.1-19.5c6.8,0,10.9,2.4,14.7,6l-2.9,3.1C29,6.2,25.5,4,20.4,4
		C12,4,5.8,10.8,5.8,19.5v0.1c0,8.7,6.3,15.6,14.6,15.6c5.2,0,8.6-2,12.2-5.4l2.8,2.7c-3.9,4-8.2,6.6-15.1,6.6
		C9.4,39.1,1.4,30.5,1.4,19.7z"/>
	<path class="st0" d="M48.3,19.7v-0.1c0-10.4,7.8-19.5,19.3-19.5c11.5,0,19.2,9,19.2,19.4c0.1,0.1,0.1,0.1,0,0.1
		c0,10.4-7.8,19.5-19.3,19.5C56,39.1,48.3,30.1,48.3,19.7z M82.4,19.7v-0.1C82.4,11,76.1,4,67.5,4s-14.8,6.9-14.8,15.5v0.1
		c0,8.6,6.2,15.6,14.9,15.6S82.4,28.3,82.4,19.7z"/>
	<path class="st0" d="M104.1,0.8h4L131.9,31V0.8h4.1v37.7h-3.4L108.3,7.5v30.9h-4.1V0.8z"/>
	<path class="st0" d="M164.4,4.7h-12.7V0.8h29.6v3.9h-12.7v33.8h-4.3V4.7z"/>
	<path class="st0" d="M206.2,0.5h4l17.2,38h-4.6l-4.4-10h-20.5l-4.5,10H189L206.2,0.5z M216.7,24.7l-8.6-19.2l-8.6,19.2H216.7z"/>
	<path class="st0" d="M241.8,0.8h19.3c4.7,0,8.1,1.2,10.3,3.4c1.5,1.5,2.4,3.5,2.4,6.1v0.1c0,4.4-2.5,6.9-5.8,8.4
		c4.6,1.5,7.5,4.1,7.5,9.2v0.1c0,6.5-5.3,10.4-14.3,10.4h-19.4V0.8z M258.6,15.8c3.2,0,5-1.1,5-3.3v-0.1c0-2-1.6-3.2-4.7-3.2H252
		v6.6H258.6z M260.1,30.1c3.2,0,5-1.2,5-3.4v-0.1c0-2-1.6-3.4-5.1-3.4h-8v6.9H260.1z"/>
	<path class="st0" d="M289.4,0.8h10.4v28.5h18.3v9.2h-28.7V0.8z"/>
	<path class="st0" d="M345,0.5h10.1l16,38H360l-2.7-6.7h-14.5l-2.7,6.7h-11L345,0.5z M354.2,23.6L350,12.9l-4.3,10.7H354.2z"/>
	<path class="st0" d="M379.8,19.7v-0.1c0-11,8.5-19.6,19.9-19.6c7.7,0,12.7,3.2,16,7.9l-7.9,6.1c-2.2-2.7-4.6-4.4-8.2-4.4
		c-5.3,0-9,4.5-9,10v0.1c0,5.7,3.7,10.1,9,10.1c3.9,0,6.2-1.8,8.5-4.6l7.9,5.6c-3.6,4.9-8.3,8.5-16.7,8.5
		C388.5,39.2,379.8,31,379.8,19.7z"/>
	<path class="st0" d="M428.8,0.8h10.4V16l13-15.3h12.4L450.4,17l14.8,21.5h-12.5l-9.5-14l-3.8,4.3v9.7h-10.4V0.8z"/>
</g>
</svg>
